<svg width="660" height="180" viewBox="0 0 660 180" fill="none" xmlns="http://www.w3.org/2000/svg">
<g clip-path="url(#clip0_174_10)">
<rect width="660" height="180" rx="48" fill="white"/>
<path d="M199.24 121V109.992C198.941 111.144 197.939 112.723 196.232 114.728C194.568 116.733 192.243 118.547 189.256 120.168C186.312 121.747 182.813 122.536 178.76 122.536C174.024 122.536 169.651 121.448 165.64 119.272C161.672 117.053 158.472 113.875 156.04 109.736C153.651 105.555 152.456 100.563 152.456 94.76C152.456 88.9573 153.651 83.9867 156.04 79.848C158.472 75.6667 161.672 72.4667 165.64 70.248C169.651 68.0293 174.024 66.92 178.76 66.92C182.813 66.92 186.312 67.688 189.256 69.224C192.2 70.7173 194.525 72.4453 196.232 74.408C197.981 76.3707 198.963 78.0133 199.176 79.336V68.456H206.344V121H199.24ZM159.688 94.76C159.688 99.1973 160.648 103.016 162.568 106.216C164.488 109.416 166.963 111.869 169.992 113.576C173.064 115.283 176.285 116.136 179.656 116.136C183.368 116.136 186.675 115.261 189.576 113.512C192.477 111.763 194.76 109.288 196.424 106.088C198.131 102.888 198.984 99.112 198.984 94.76C198.984 90.408 198.131 86.632 196.424 83.432C194.76 80.232 192.477 77.7573 189.576 76.008C186.675 74.216 183.368 73.32 179.656 73.32C176.285 73.32 173.064 74.1947 169.992 75.944C166.963 77.6507 164.488 80.104 162.568 83.304C160.648 86.504 159.688 90.3227 159.688 94.76ZM246.421 149.032C242.069 149.032 238.272 148.563 235.029 147.624C231.786 146.685 229.056 145.427 226.837 143.848C224.661 142.312 222.976 140.648 221.781 138.856L227.157 134.12C227.925 135.187 228.992 136.381 230.357 137.704C231.722 139.027 233.664 140.157 236.181 141.096C238.698 142.077 242.048 142.568 246.229 142.568C250.41 142.568 253.909 141.629 256.725 139.752C259.584 137.875 261.738 135.379 263.189 132.264C264.64 129.149 265.365 125.715 265.365 121.96V120.104H272.469V122.536C272.469 128.253 271.296 133.075 268.949 137C266.645 140.968 263.509 143.955 259.541 145.96C255.616 148.008 251.242 149.032 246.421 149.032ZM265.365 121V109.992C265.066 111.144 264.064 112.723 262.357 114.728C260.693 116.733 258.368 118.547 255.381 120.168C252.437 121.747 248.938 122.536 244.885 122.536C240.149 122.536 235.776 121.448 231.765 119.272C227.797 117.053 224.597 113.875 222.165 109.736C219.776 105.555 218.581 100.563 218.581 94.76C218.581 88.9573 219.776 83.9867 222.165 79.848C224.597 75.6667 227.797 72.4667 231.765 70.248C235.776 68.0293 240.149 66.92 244.885 66.92C248.938 66.92 252.437 67.688 255.381 69.224C258.325 70.7173 260.65 72.4453 262.357 74.408C264.106 76.3707 265.088 78.0133 265.301 79.336V68.456H272.469V121H265.365ZM225.813 94.76C225.813 99.1973 226.773 103.016 228.693 106.216C230.613 109.416 233.088 111.869 236.117 113.576C239.189 115.283 242.41 116.136 245.781 116.136C249.493 116.136 252.8 115.261 255.701 113.512C258.602 111.763 260.885 109.288 262.549 106.088C264.256 102.888 265.109 99.112 265.109 94.76C265.109 90.408 264.256 86.632 262.549 83.432C260.885 80.232 258.602 77.7573 255.701 76.008C252.8 74.216 249.493 73.32 245.781 73.32C242.41 73.32 239.189 74.1947 236.117 75.944C233.088 77.6507 230.613 80.104 228.693 83.304C226.773 86.504 225.813 90.3227 225.813 94.76ZM290.582 121V68.456H297.814V121H290.582ZM294.294 47.144C292.758 47.144 291.435 46.6107 290.326 45.544C289.259 44.4347 288.726 43.112 288.726 41.576C288.726 39.9973 289.281 38.6747 290.39 37.608C291.499 36.4987 292.801 35.944 294.294 35.944C295.318 35.944 296.257 36.2 297.11 36.712C298.006 37.224 298.71 37.9067 299.222 38.76C299.777 39.5707 300.054 40.5093 300.054 41.576C300.054 43.112 299.478 44.4347 298.326 45.544C297.217 46.6107 295.873 47.144 294.294 47.144ZM342.85 66.92C346.178 66.92 349.421 67.6453 352.578 69.096C355.735 70.504 358.338 72.7653 360.386 75.88C362.434 78.952 363.458 82.9413 363.458 87.848V121H356.034V89.576C356.034 83.7307 354.669 79.528 351.938 76.968C349.207 74.3653 345.709 73.064 341.442 73.064C338.626 73.064 335.895 73.8747 333.25 75.496C330.647 77.1173 328.493 79.336 326.786 82.152C325.122 84.968 324.29 88.1253 324.29 91.624V121H316.994V68.456H324.29V78.568C324.589 77.0747 325.591 75.432 327.298 73.64C329.047 71.8053 331.266 70.2267 333.954 68.904C336.685 67.5813 339.65 66.92 342.85 66.92ZM420.314 121V111.272C419.973 112.296 418.991 113.704 417.37 115.496C415.791 117.288 413.615 118.909 410.842 120.36C408.111 121.811 404.869 122.536 401.114 122.536C396.207 122.536 391.791 121.363 387.866 119.016C383.941 116.669 380.847 113.405 378.586 109.224C376.325 105.043 375.194 100.221 375.194 94.76C375.194 89.2987 376.325 84.4773 378.586 80.296C380.847 76.1147 383.941 72.8507 387.866 70.504C391.791 68.1147 396.207 66.92 401.114 66.92C404.783 66.92 407.962 67.56 410.65 68.84C413.338 70.12 415.493 71.592 417.114 73.256C418.778 74.92 419.802 76.3707 420.186 77.608V68.456H433.754V121H420.314ZM388.698 94.76C388.698 98.1307 389.445 101.075 390.938 103.592C392.431 106.109 394.373 108.051 396.762 109.416C399.194 110.781 401.797 111.464 404.57 111.464C407.557 111.464 410.202 110.76 412.506 109.352C414.853 107.944 416.687 106.003 418.01 103.528C419.375 101.011 420.058 98.088 420.058 94.76C420.058 91.432 419.375 88.5307 418.01 86.056C416.687 83.5387 414.853 81.576 412.506 80.168C410.202 78.7173 407.557 77.992 404.57 77.992C401.797 77.992 399.194 78.696 396.762 80.104C394.373 81.4693 392.431 83.4107 390.938 85.928C389.445 88.4453 388.698 91.3893 388.698 94.76ZM460.7 94.248C460.7 99.368 461.745 103.443 463.836 106.472C465.969 109.501 469.319 111.016 473.884 111.016C478.492 111.016 481.841 109.501 483.932 106.472C486.023 103.443 487.068 99.368 487.068 94.248V68.456H500.636V95.976C500.636 101.267 499.591 105.917 497.5 109.928C495.409 113.896 492.38 116.989 488.412 119.208C484.444 121.427 479.601 122.536 473.884 122.536C468.209 122.536 463.388 121.427 459.42 119.208C455.452 116.989 452.423 113.896 450.332 109.928C448.241 105.917 447.196 101.267 447.196 95.976V68.456H460.7V94.248ZM509.856 68.456H519.712V46.888H533.28V68.456H546.272V79.976H533.28V102.44C533.28 105.256 533.749 107.368 534.688 108.776C535.669 110.184 537.056 110.888 538.848 110.888C540.341 110.888 541.515 110.611 542.368 110.056C543.264 109.501 543.797 109.117 543.968 108.904L549.024 118.824C548.768 119.08 548.021 119.507 546.784 120.104C545.547 120.701 543.947 121.256 541.984 121.768C540.021 122.28 537.781 122.536 535.264 122.536C530.827 122.536 527.115 121.213 524.128 118.568C521.184 115.923 519.712 111.784 519.712 106.152V79.976H509.856V68.456ZM589.833 66.92C593.332 66.92 596.745 67.6453 600.073 69.096C603.401 70.5467 606.132 72.872 608.265 76.072C610.441 79.2293 611.529 83.3467 611.529 88.424V121H597.769V90.92C597.769 86.184 596.681 82.7067 594.505 80.488C592.372 78.2267 589.534 77.096 585.993 77.096C583.646 77.096 581.385 77.7573 579.209 79.08C577.033 80.4027 575.241 82.1947 573.833 84.456C572.468 86.7173 571.785 89.32 571.785 92.264V121H558.025V32.936H571.785V77.288C572.169 75.8373 573.193 74.3227 574.857 72.744C576.564 71.1227 578.718 69.7573 581.321 68.648C583.924 67.496 586.761 66.92 589.833 66.92Z" fill="#0A0A0A"/>
<g clip-path="url(#clip1_174_10)">
<path d="M87.0003 54C96.3436 62.2663 108.538 66.5703 121 66C122.815 72.1721 123.37 78.6459 122.633 85.0367C121.896 91.4276 119.882 97.6051 116.71 103.202C113.538 108.799 109.274 113.702 104.17 117.618C99.0664 121.534 93.2275 124.385 87.0003 126C80.7732 124.385 74.9342 121.534 69.8305 117.618C64.7268 113.702 60.4624 108.799 57.2907 103.202C54.119 97.6051 52.1048 91.4276 51.3678 85.0367C50.6308 78.6459 51.1859 72.1721 53.0003 66C65.4624 66.5703 77.657 62.2663 87.0003 54Z" stroke="#0A0A0A" stroke-width="8" stroke-linecap="round" stroke-linejoin="round"/>
<path d="M83 86C83 87.0609 83.4214 88.0783 84.1716 88.8284C84.9217 89.5786 85.9391 90 87 90C88.0609 90 89.0783 89.5786 89.8284 88.8284C90.5786 88.0783 91 87.0609 91 86C91 84.9391 90.5786 83.9217 89.8284 83.1716C89.0783 82.4214 88.0609 82 87 82C85.9391 82 84.9217 82.4214 84.1716 83.1716C83.4214 83.9217 83 84.9391 83 86Z" stroke="#0A0A0A" stroke-width="8" stroke-linecap="round" stroke-linejoin="round"/>
<path d="M87 90V100" stroke="#0A0A0A" stroke-width="8" stroke-linecap="round" stroke-linejoin="round"/>
</g>
</g>
<defs>
<clipPath id="clip0_174_10">
<rect width="660" height="180" fill="white"/>
</clipPath>
<clipPath id="clip1_174_10">
<rect width="96" height="96" fill="white" transform="translate(39 42)"/>
</clipPath>
</defs>
</svg>
