<svg width="256" height="256" viewBox="0 0 256 256" fill="none" xmlns="http://www.w3.org/2000/svg">
<g clip-path="url(#clip0_118_38)">
<rect width="256" height="256" rx="128" fill="white"/>
<g clip-path="url(#clip1_118_38)">
<path d="M128.001 55.75C148.05 73.4881 174.217 82.7237 200.959 81.5C204.852 94.7442 206.044 108.636 204.462 122.35C202.881 136.063 198.558 149.319 191.753 161.33C184.947 173.34 175.796 183.86 164.844 192.263C153.892 200.667 141.363 206.784 128.001 210.25C114.638 206.784 102.109 200.667 91.1571 192.263C80.2053 183.86 71.0547 173.34 64.2488 161.33C57.443 149.319 53.1208 136.063 51.5393 122.35C49.9577 108.636 51.149 94.7442 55.0424 81.5C81.784 82.7237 107.951 73.4881 128.001 55.75Z" stroke="#0A0A0A" stroke-width="17.1667" stroke-linecap="round" stroke-linejoin="round"/>
<path d="M119.417 124.417C119.417 126.693 120.321 128.876 121.931 130.486C123.54 132.096 125.724 133 128 133C130.277 133 132.46 132.096 134.069 130.486C135.679 128.876 136.583 126.693 136.583 124.417C136.583 122.14 135.679 119.957 134.069 118.347C132.46 116.738 130.277 115.833 128 115.833C125.724 115.833 123.54 116.738 121.931 118.347C120.321 119.957 119.417 122.14 119.417 124.417Z" stroke="#0A0A0A" stroke-width="17.1667" stroke-linecap="round" stroke-linejoin="round"/>
<path d="M128 133V154.458" stroke="#0A0A0A" stroke-width="17.1667" stroke-linecap="round" stroke-linejoin="round"/>
</g>
</g>
<defs>
<clipPath id="clip0_118_38">
<rect width="256" height="256" fill="white"/>
</clipPath>
<clipPath id="clip1_118_38">
<rect width="206" height="206" fill="white" transform="translate(25 30)"/>
</clipPath>
</defs>
</svg>
