<svg width="573" height="128" viewBox="0 0 573 128" fill="none" xmlns="http://www.w3.org/2000/svg">
<g clip-path="url(#clip0_172_2)">
<path d="M152.24 95V83.992C151.941 85.144 150.939 86.7227 149.232 88.728C147.568 90.7333 145.243 92.5467 142.256 94.168C139.312 95.7467 135.813 96.536 131.76 96.536C127.024 96.536 122.651 95.448 118.64 93.272C114.672 91.0533 111.472 87.8747 109.04 83.736C106.651 79.5547 105.456 74.5627 105.456 68.76C105.456 62.9573 106.651 57.9867 109.04 53.848C111.472 49.6667 114.672 46.4667 118.64 44.248C122.651 42.0293 127.024 40.92 131.76 40.92C135.813 40.92 139.312 41.688 142.256 43.224C145.2 44.7173 147.525 46.4453 149.232 48.408C150.981 50.3707 151.963 52.0133 152.176 53.336V42.456H159.344V95H152.24ZM112.688 68.76C112.688 73.1973 113.648 77.016 115.568 80.216C117.488 83.416 119.963 85.8693 122.992 87.576C126.064 89.2827 129.285 90.136 132.656 90.136C136.368 90.136 139.675 89.2613 142.576 87.512C145.477 85.7627 147.76 83.288 149.424 80.088C151.131 76.888 151.984 73.112 151.984 68.76C151.984 64.408 151.131 60.632 149.424 57.432C147.76 54.232 145.477 51.7573 142.576 50.008C139.675 48.216 136.368 47.32 132.656 47.32C129.285 47.32 126.064 48.1947 122.992 49.944C119.963 51.6507 117.488 54.104 115.568 57.304C113.648 60.504 112.688 64.3227 112.688 68.76ZM199.421 123.032C195.069 123.032 191.272 122.563 188.029 121.624C184.786 120.685 182.056 119.427 179.837 117.848C177.661 116.312 175.976 114.648 174.781 112.856L180.157 108.12C180.925 109.187 181.992 110.381 183.357 111.704C184.722 113.027 186.664 114.157 189.181 115.096C191.698 116.077 195.048 116.568 199.229 116.568C203.41 116.568 206.909 115.629 209.725 113.752C212.584 111.875 214.738 109.379 216.189 106.264C217.64 103.149 218.365 99.7147 218.365 95.96V94.104H225.469V96.536C225.469 102.253 224.296 107.075 221.949 111C219.645 114.968 216.509 117.955 212.541 119.96C208.616 122.008 204.242 123.032 199.421 123.032ZM218.365 95V83.992C218.066 85.144 217.064 86.7227 215.357 88.728C213.693 90.7333 211.368 92.5467 208.381 94.168C205.437 95.7467 201.938 96.536 197.885 96.536C193.149 96.536 188.776 95.448 184.765 93.272C180.797 91.0533 177.597 87.8747 175.165 83.736C172.776 79.5547 171.581 74.5627 171.581 68.76C171.581 62.9573 172.776 57.9867 175.165 53.848C177.597 49.6667 180.797 46.4667 184.765 44.248C188.776 42.0293 193.149 40.92 197.885 40.92C201.938 40.92 205.437 41.688 208.381 43.224C211.325 44.7173 213.65 46.4453 215.357 48.408C217.106 50.3707 218.088 52.0133 218.301 53.336V42.456H225.469V95H218.365ZM178.813 68.76C178.813 73.1973 179.773 77.016 181.693 80.216C183.613 83.416 186.088 85.8693 189.117 87.576C192.189 89.2827 195.41 90.136 198.781 90.136C202.493 90.136 205.8 89.2613 208.701 87.512C211.602 85.7627 213.885 83.288 215.549 80.088C217.256 76.888 218.109 73.112 218.109 68.76C218.109 64.408 217.256 60.632 215.549 57.432C213.885 54.232 211.602 51.7573 208.701 50.008C205.8 48.216 202.493 47.32 198.781 47.32C195.41 47.32 192.189 48.1947 189.117 49.944C186.088 51.6507 183.613 54.104 181.693 57.304C179.773 60.504 178.813 64.3227 178.813 68.76ZM243.582 95V42.456H250.814V95H243.582ZM247.294 21.144C245.758 21.144 244.435 20.6107 243.326 19.544C242.259 18.4347 241.726 17.112 241.726 15.576C241.726 13.9973 242.281 12.6747 243.39 11.608C244.499 10.4987 245.801 9.94399 247.294 9.94399C248.318 9.94399 249.257 10.2 250.11 10.712C251.006 11.224 251.71 11.9067 252.222 12.76C252.777 13.5707 253.054 14.5093 253.054 15.576C253.054 17.112 252.478 18.4347 251.326 19.544C250.217 20.6107 248.873 21.144 247.294 21.144ZM295.85 40.92C299.178 40.92 302.421 41.6453 305.578 43.096C308.735 44.504 311.338 46.7653 313.386 49.88C315.434 52.952 316.458 56.9413 316.458 61.848V95H309.034V63.576C309.034 57.7307 307.669 53.528 304.938 50.968C302.207 48.3653 298.709 47.064 294.442 47.064C291.626 47.064 288.895 47.8747 286.25 49.496C283.647 51.1173 281.493 53.336 279.786 56.152C278.122 58.968 277.29 62.1253 277.29 65.624V95H269.994V42.456H277.29V52.568C277.589 51.0747 278.591 49.432 280.298 47.64C282.047 45.8053 284.266 44.2267 286.954 42.904C289.685 41.5813 292.65 40.92 295.85 40.92ZM373.314 95V85.272C372.973 86.296 371.991 87.704 370.37 89.496C368.791 91.288 366.615 92.9093 363.842 94.36C361.111 95.8107 357.869 96.536 354.114 96.536C349.207 96.536 344.791 95.3627 340.866 93.016C336.941 90.6693 333.847 87.4053 331.586 83.224C329.325 79.0427 328.194 74.2213 328.194 68.76C328.194 63.2987 329.325 58.4773 331.586 54.296C333.847 50.1147 336.941 46.8507 340.866 44.504C344.791 42.1147 349.207 40.92 354.114 40.92C357.783 40.92 360.962 41.56 363.65 42.84C366.338 44.12 368.493 45.592 370.114 47.256C371.778 48.92 372.802 50.3707 373.186 51.608V42.456H386.754V95H373.314ZM341.698 68.76C341.698 72.1307 342.445 75.0747 343.938 77.592C345.431 80.1093 347.373 82.0507 349.762 83.416C352.194 84.7813 354.797 85.464 357.57 85.464C360.557 85.464 363.202 84.76 365.506 83.352C367.853 81.944 369.687 80.0027 371.01 77.528C372.375 75.0107 373.058 72.088 373.058 68.76C373.058 65.432 372.375 62.5307 371.01 60.056C369.687 57.5387 367.853 55.576 365.506 54.168C363.202 52.7173 360.557 51.992 357.57 51.992C354.797 51.992 352.194 52.696 349.762 54.104C347.373 55.4693 345.431 57.4107 343.938 59.928C342.445 62.4453 341.698 65.3893 341.698 68.76ZM413.7 68.248C413.7 73.368 414.745 77.4427 416.836 80.472C418.969 83.5013 422.319 85.016 426.884 85.016C431.492 85.016 434.841 83.5013 436.932 80.472C439.023 77.4427 440.068 73.368 440.068 68.248V42.456H453.636V69.976C453.636 75.2667 452.591 79.9173 450.5 83.928C448.409 87.896 445.38 90.9893 441.412 93.208C437.444 95.4267 432.601 96.536 426.884 96.536C421.209 96.536 416.388 95.4267 412.42 93.208C408.452 90.9893 405.423 87.896 403.332 83.928C401.241 79.9173 400.196 75.2667 400.196 69.976V42.456H413.7V68.248ZM462.856 42.456H472.712V20.888H486.28V42.456H499.272V53.976H486.28V76.44C486.28 79.256 486.749 81.368 487.688 82.776C488.669 84.184 490.056 84.888 491.848 84.888C493.341 84.888 494.515 84.6107 495.368 84.056C496.264 83.5013 496.797 83.1173 496.968 82.904L502.024 92.824C501.768 93.08 501.021 93.5067 499.784 94.104C498.547 94.7013 496.947 95.256 494.984 95.768C493.021 96.28 490.781 96.536 488.264 96.536C483.827 96.536 480.115 95.2133 477.128 92.568C474.184 89.9227 472.712 85.784 472.712 80.152V53.976H462.856V42.456ZM542.833 40.92C546.332 40.92 549.745 41.6453 553.073 43.096C556.401 44.5467 559.132 46.872 561.265 50.072C563.441 53.2293 564.529 57.3467 564.529 62.424V95H550.769V64.92C550.769 60.184 549.681 56.7067 547.505 54.488C545.372 52.2267 542.534 51.096 538.993 51.096C536.646 51.096 534.385 51.7573 532.209 53.08C530.033 54.4027 528.241 56.1947 526.833 58.456C525.468 60.7173 524.785 63.32 524.785 66.264V95H511.025V6.936H524.785V51.288C525.169 49.8373 526.193 48.3227 527.857 46.744C529.564 45.1227 531.718 43.7573 534.321 42.648C536.924 41.496 539.761 40.92 542.833 40.92Z" fill="#0A0A0A"/>
<g clip-path="url(#clip1_172_2)">
<path d="M40.0003 28C49.3436 36.2663 61.5382 40.5703 74.0003 40C75.8147 46.1721 76.3698 52.6459 75.6328 59.0367C74.8958 65.4276 72.8816 71.6051 69.7099 77.2021C66.5383 82.7992 62.2739 87.7015 57.1701 91.6179C52.0664 95.5343 46.2275 98.3848 40.0003 100C33.7732 98.3848 27.9342 95.5343 22.8305 91.6179C17.7268 87.7015 13.4624 82.7992 10.2907 77.2021C7.11904 71.6051 5.10485 65.4276 4.36782 59.0367C3.63078 52.6459 4.18594 46.1721 6.00031 40C18.4624 40.5703 30.657 36.2663 40.0003 28Z" stroke="#0A0A0A" stroke-width="8" stroke-linecap="round" stroke-linejoin="round"/>
<path d="M36 60C36 61.0609 36.4214 62.0783 37.1716 62.8284C37.9217 63.5786 38.9391 64 40 64C41.0609 64 42.0783 63.5786 42.8284 62.8284C43.5786 62.0783 44 61.0609 44 60C44 58.9391 43.5786 57.9217 42.8284 57.1716C42.0783 56.4214 41.0609 56 40 56C38.9391 56 37.9217 56.4214 37.1716 57.1716C36.4214 57.9217 36 58.9391 36 60Z" stroke="#0A0A0A" stroke-width="8" stroke-linecap="round" stroke-linejoin="round"/>
<path d="M40 64V74" stroke="#0A0A0A" stroke-width="8" stroke-linecap="round" stroke-linejoin="round"/>
</g>
</g>
<defs>
<clipPath id="clip0_172_2">
<rect width="573" height="128" fill="white"/>
</clipPath>
<clipPath id="clip1_172_2">
<rect width="96" height="96" fill="white" transform="translate(-8 16)"/>
</clipPath>
</defs>
</svg>
